<?xml version="1.0"?>
<svg xmlns="http://www.w3.org/2000/svg" height="18px" viewBox="0 -9 512 512" width="18px"><g><path d="m295.601562 0-36.714843 61.261719-40.640625-61.125-218.246094 108.355469 63.957031 135.148437 49.484375-20.953125v271.042969h287.621094v-271.042969l49.1875 20.828125 61.75-139.421875zm-216.84375 204.804688-39.058593-82.535157 168.207031-83.515625 34.34375 51.65625-47.726562 85.933594-.117188 46.007812h-50.972656v-44.933593zm193.699219 70.320312h-48.195312l.058593-22.78125h57.964844zm28.972657-22.78125h69.640624v22.78125h-60.988281zm-107.160157 22.78125h-50.835937v-22.78125h50.894531zm-50.835937 29.992188h50.761718l-.40625 158.621093h-50.355468zm227.636718 158.621093h-147.289062l.40625-158.625h35.332031l-20.078125 46.539063 27.539063 11.878906 23.71875-54.972656 39.660156 104.421875 28.035156-10.648438-36.921875-97.21875h49.597656zm63.703126-259.347656-63.703126-26.972656v44.933593h-146.671874l.097656-38.203124 82.765625-145.261719 165.546875 79.636719zm0 0" data-original="#000000" class="active-path" data-old_color="#000000" fill="#0c284f"/></g> </svg>
