<?xml version="1.0"?>
<svg xmlns="http://www.w3.org/2000/svg" height="18px" viewBox="0 0 512 512" width="18px" class=""><g><path d="m467 0h-407v60h-15c-24.8125 0-45 20.1875-45 45v362c0 24.8125 20.1875 45 45 45h407v-60h15c24.8125 0 45-20.1875 45-45v-362c0-24.8125-20.1875-45-45-45zm-377 30h30v332h-30zm332 452h-377c-8.269531 0-15-6.730469-15-15s6.730469-15 15-15h377zm45-60h-422c-5.257812 0-10.304688.914062-15 2.578125v-319.578125c0-8.269531 6.730469-15 15-15h15v302h407c8.269531 0 15 6.730469 15 15s-6.730469 15-15 15zm15-57.429688c-4.691406-1.664062-9.742188-2.570312-15-2.570312h-317v-332h317c8.269531 0 15 6.730469 15 15zm0 0" data-original="#000000" class="active-path" data-old_color="#000000" fill="#0c284f"/></g> </svg>
