<?xml version="1.0"?>
<svg xmlns="http://www.w3.org/2000/svg" xmlns:xlink="http://www.w3.org/1999/xlink" version="1.1" id="Capa_1" x="0px" y="0px" viewBox="0 0 512 512" style="enable-background:new 0 0 512 512;" xml:space="preserve" width="18px" height="19px"><g><g>
	<g>
		<path d="M318.441,59.999c-51.556,0-93.5,41.944-93.5,93.5c0,51.556,41.944,93.5,93.5,93.5c51.556,0,93.5-41.944,93.5-93.5    C411.941,101.943,369.997,59.999,318.441,59.999z M318.441,216.999c-35.014,0-63.5-28.486-63.5-63.5s28.486-63.5,63.5-63.5    s63.5,28.486,63.5,63.5S353.455,216.999,318.441,216.999z" data-original="#000000" class="active-path" data-old_color="#000000" fill="#0c284f"/>
	</g>
</g><g>
	<g>
		<path d="M479.495,306.05v0.001c-37.873,0-68.685,30.812-68.685,68.685v68.579c0,21.331-17.354,38.685-38.685,38.685    c-18.586,0-34.148-13.177-37.846-30.678c26.718-7.026,46.483-31.383,46.483-60.276v-97.233    c54.951-24.442,91.179-79.546,91.179-140.313c0-84.64-68.859-153.5-153.5-153.5H0v132.185l167.261,47.982    c4.384,25,14.923,48.524,30.791,68.561c15.511,19.586,35.433,35.024,58.068,45.085v97.232c0,29.38,20.442,54.06,47.845,60.606    c4.13,33.953,33.111,60.348,68.161,60.348c37.873,0,68.685-30.812,68.685-68.685v-68.579c0-21.331,17.354-38.685,38.685-38.685    H512v-30H479.495z M60.048,118.2L30,109.58V29.999h30.048V118.2z M195.659,166.831l-1.076-10.037L90.048,126.807V29.999h228.394    c68.098,0,123.5,55.402,123.5,123.5c0,51.767-32.674,98.425-81.304,116.104l-9.875,3.59v35.539H286.12v-35.539l-9.875-3.59    C232.27,253.614,200.638,213.273,195.659,166.831z M318.442,423.367c-17.822,0-32.322-14.499-32.322-32.321v-52.313h64.643v52.313    C350.763,408.867,336.264,423.367,318.442,423.367z" data-original="#000000" class="active-path" data-old_color="#000000" fill="#04458F"/>
	</g>
</g></g> </svg>
