<?xml version="1.0"?>
<svg xmlns="http://www.w3.org/2000/svg" height="18px" viewBox="0 0 512 512" width="18px"><g><path d="m512 182h-55.039062c9.4375-12.542969 15.039062-28.128906 15.039062-45 0-28.484375-15.964844-53.308594-39.414062-66.003906 4.683593-7.203125 7.414062-15.785156 7.414062-24.996094 0-25.363281-20.636719-46-46-46h-276c-25.363281 0-46 20.636719-46 46 0 6.027344 1.179688 11.785156 3.296875 17.066406-20.164063 4.449219-35.296875 22.453125-35.296875 43.933594 0 11.515625 4.347656 22.03125 11.484375 30-7.136719 7.96875-11.484375 18.484375-11.484375 30 0 5.257812.914062 10.304688 2.578125 15h-42.578125v90h25.199219l20 240h421.601562l20-240h25.199219zm-394-152h276c8.820312 0 16 7.179688 16 16s-7.179688 16-16 16h-276c-8.820312 0-16-7.179688-16-16s7.179688-16 16-16zm-48 137c0-8.269531 6.730469-15 15-15h310v-30h-310c-8.269531 0-15-6.730469-15-15s6.730469-15 15-15h312c24.8125 0 45 20.1875 45 45s-20.1875 45-45 45h-312c-8.269531 0-15-6.730469-15-15zm-40 45h452v30h-452zm409.199219 270h-366.398438l-17.5-210h401.398438zm0 0" data-original="#000000" class="active-path" data-old_color="#000000" fill="#0c284f"/><path d="m236 302h40v30h-40zm0 0" data-original="#000000" class="active-path" data-old_color="#000000" fill="#04458F"/><path d="m236 362h40v30h-40zm0 0" data-original="#000000" class="active-path" data-old_color="#000000" fill="#04458F"/><path d="m236 422h40v30h-40zm0 0" data-original="#000000" class="active-path" data-old_color="#000000" fill="#04458F"/><path d="m306 302h40v30h-40zm0 0" data-original="#000000" class="active-path" data-old_color="#000000" fill="#04458F"/><path d="m306 362h40v30h-40zm0 0" data-original="#000000" class="active-path" data-old_color="#000000" fill="#04458F"/><path d="m306 422h40v30h-40zm0 0" data-original="#000000" class="active-path" data-old_color="#000000" fill="#04458F"/><path d="m376 302h40v30h-40zm0 0" data-original="#000000" class="active-path" data-old_color="#000000" fill="#04458F"/><path d="m376 362h40v30h-40zm0 0" data-original="#000000" class="active-path" data-old_color="#000000" fill="#04458F"/><path d="m376 422h40v30h-40zm0 0" data-original="#000000" class="active-path" data-old_color="#000000" fill="#04458F"/><path d="m96 302h40v30h-40zm0 0" data-original="#000000" class="active-path" data-old_color="#000000" fill="#04458F"/><path d="m96 362h40v30h-40zm0 0" data-original="#000000" class="active-path" data-old_color="#000000" fill="#04458F"/><path d="m96 422h40v30h-40zm0 0" data-original="#000000" class="active-path" data-old_color="#000000" fill="#04458F"/><path d="m166 302h40v30h-40zm0 0" data-original="#000000" class="active-path" data-old_color="#000000" fill="#04458F"/><path d="m166 362h40v30h-40zm0 0" data-original="#000000" class="active-path" data-old_color="#000000" fill="#04458F"/><path d="m166 422h40v30h-40zm0 0" data-original="#000000" class="active-path" data-old_color="#000000" fill="#04458F"/></g> </svg>
