<?xml version="1.0"?>
<svg xmlns="http://www.w3.org/2000/svg" id="Layer_1" data-name="Layer 1" viewBox="0 0 512 512" width="26px" height="26px"><g><title class="active-path" style="">Dewan bed</title><path d="M486,225H458a15.905,15.905,0,0,0-4,.527V161a26.029,26.029,0,0,0-26-26H84a26.029,26.029,0,0,0-26,26v64.527A15.905,15.905,0,0,0,54,225H26a16.019,16.019,0,0,0-16,16v80a26.029,26.029,0,0,0,26,26H59.675l8.633,25.9A6,6,0,0,0,74,377H84a6,6,0,0,0,5.692-4.1L98.325,347h315.35l8.633,25.9A6,6,0,0,0,428,377h10a6,6,0,0,0,5.692-4.1l8.633-25.9H476a26.029,26.029,0,0,0,26-26V241A16.019,16.019,0,0,0,486,225Zm-44-64V271a14.015,14.015,0,0,1-14,14H350.2a5.957,5.957,0,0,0,3.967-1.731l40-40a6,6,0,0,0,0-8.485l-40-40a6,6,0,0,0-8.484,0l-40,40a6,6,0,0,0,0,8.485l40,40A5.955,5.955,0,0,0,349.646,285H262V147H428A14.015,14.015,0,0,1,442,161ZM349.921,270.541l-31.515-31.515,31.515-31.514,31.515,31.514ZM70,161a14.015,14.015,0,0,1,14-14H250V285H160.275a5.955,5.955,0,0,0,3.967-1.731l40-40a6,6,0,0,0,0-8.485l-40-40a6,6,0,0,0-8.484,0l-40,40a6,6,0,0,0,0,8.485l40,40A5.955,5.955,0,0,0,159.725,285H84a14.015,14.015,0,0,1-14-14V161Zm90,109.541-31.515-31.515L160,207.512l31.515,31.514ZM79.676,365H78.324l-6-18H85.676Zm354,0h-1.352l-6-18h13.352ZM490,321a14.015,14.015,0,0,1-14,14H36a14.015,14.015,0,0,1-14-14V241a4,4,0,0,1,4-4H54a4,4,0,0,1,4,4v30a26.029,26.029,0,0,0,26,26H428a26.029,26.029,0,0,0,26-26V241a4,4,0,0,1,4-4h28a4,4,0,0,1,4,4Z" data-original="#000000" class="active-path" fill="#0C284F"/></g> </svg>
