<?xml version="1.0"?>
<svg xmlns="http://www.w3.org/2000/svg" xmlns:xlink="http://www.w3.org/1999/xlink" version="1.1" id="Layer_1" x="0px" y="0px" viewBox="0 0 485 485" style="enable-background:new 0 0 485 485;" xml:space="preserve" width="20px" height="20px"><g><g>
	<path d="M304.082,109.628V0H180.918v109.628c-34.132,16.369-56.408,51.115-56.408,89.58v228.615   c0,31.527,25.649,57.177,57.177,57.177h121.626c31.527,0,57.177-25.649,57.177-57.177V199.208   C360.49,160.743,338.214,125.996,304.082,109.628z M274.082,30v74.615h-63.164V30H274.082z M198.604,134.615h87.792   c26.474,10.352,44.094,36.006,44.094,64.593v15H154.51v-15C154.51,170.621,172.13,144.967,198.604,134.615z M330.49,244.208V385   H154.51V244.208H330.49z M303.313,455H181.687c-14.985,0-27.177-12.191-27.177-27.177V415H330.49v12.823   C330.49,442.809,318.298,455,303.313,455z" data-original="#000000" class="active-path" data-old_color="#000000" fill="#0c284f"/>
</g></g> </svg>
