<?xml version="1.0" encoding="UTF-8" standalone="no"?>
<svg
   xmlns:dc="http://purl.org/dc/elements/1.1/"
   xmlns:cc="http://creativecommons.org/ns#"
   xmlns:rdf="http://www.w3.org/1999/02/22-rdf-syntax-ns#"
   xmlns:svg="http://www.w3.org/2000/svg"
   xmlns="http://www.w3.org/2000/svg"
   xmlns:sodipodi="http://sodipodi.sourceforge.net/DTD/sodipodi-0.dtd"
   xmlns:inkscape="http://www.inkscape.org/namespaces/inkscape"
   sodipodi:docname="gh_logo.svg"
   inkscape:version="1.0beta2 (2b71d25, 2019-12-03)"
   id="svg8"
   version="1.1"
   viewBox="0 0 181.50611 76.543686"
   height="76.543686mm"
   width="181.50612mm">
  <defs
     id="defs2" />
  <sodipodi:namedview
     fit-margin-bottom="0"
     fit-margin-right="0"
     fit-margin-left="0"
     fit-margin-top="0"
     inkscape:window-maximized="0"
     inkscape:window-y="23"
     inkscape:window-x="0"
     inkscape:window-height="855"
     inkscape:window-width="1440"
     showgrid="false"
     inkscape:document-rotation="0"
     inkscape:current-layer="layer1"
     inkscape:document-units="mm"
     inkscape:cy="177.50645"
     inkscape:cx="347.28958"
     inkscape:zoom="0.35"
     inkscape:pageshadow="2"
     inkscape:pageopacity="0.0"
     borderopacity="1.0"
     bordercolor="#666666"
     pagecolor="#ffffff"
     id="base" />
  <metadata
     id="metadata5">
    <rdf:RDF>
      <cc:Work
         rdf:about="">
        <dc:format>image/svg+xml</dc:format>
        <dc:type
           rdf:resource="http://purl.org/dc/dcmitype/StillImage" />
        <dc:title></dc:title>
      </cc:Work>
    </rdf:RDF>
  </metadata>
  <g
     transform="translate(-13.946298,-101.20142)"
     id="layer1"
     inkscape:groupmode="layer"
     inkscape:label="Layer 1">
    <g
       id="g12"
       transform="matrix(0.01211594,0,0,-0.01222235,7.7716636,237.25084)">
      <path
         inkscape:connector-curvature="0"
         d="M 14927.6,7921.69 8000.04,5025.7 1072.58,7921.69 885,7999.98 l 187.58,78.45 6927.46,2895.77 6927.56,-2895.77 187.4,-78.45 z M 8000.04,11131.2 509.629,7999.98 8000.04,4868.6 15490.4,7999.98 8000.04,11131.2"
         style="fill:#0c2950;fill-opacity:1;fill-rule:nonzero;stroke:none"
         id="path14" />
      <path
         inkscape:connector-curvature="0"
         d="M 8000.04,5166 1220.7,7999.98 8000.04,10834 14779.3,7999.98 Z M 1105.45,7999.98 8000.04,5117.9 14894.7,7999.98 8000.04,10882.1 1105.45,7999.98"
         style="fill:#b8e7df;fill-opacity:1;fill-rule:nonzero;stroke:none"
         id="path16" />
      <path
         inkscape:connector-curvature="0"
         d="m 11531.5,8506.1 h -39.6 c -68.4,0 -124.1,-55.77 -124.1,-124.02 v -764.42 c 0,-68.36 55.7,-124.04 124.1,-124.04 h 39.6 c 68.2,0 124,55.68 124,124.04 v 764.42 c 0,68.25 -55.8,124.02 -124,124.02 z m 0,-54.97 c 38,0 69,-30.87 69,-69.05 v -764.42 c 0,-38.16 -31,-69.02 -69,-69.02 h -39.6 c -38.1,0 -69.2,30.86 -69.2,69.02 v 764.42 c 0,38.18 31.1,69.05 69.2,69.05 h 39.6"
         style="fill:#0c2950;fill-opacity:1;fill-rule:nonzero;stroke:none"
         id="path18" />
      <path
         inkscape:connector-curvature="0"
         d="M 12029.8,7493.62 V 8506.1 h 196.8 v -54.34 h -141.9 v -588.88 h 104.1 v -52.16 h -104.1 v -262.7 h 175.2 v -54.4 h -230.1"
         style="fill:#0c2950;fill-opacity:1;fill-rule:nonzero;stroke:none"
         id="path20" />
      <path
         inkscape:connector-curvature="0"
         d="m 12389.1,7547.86 h 175.2 v -54.24 h -230.1 V 8506.1 h 54.9 v -958.24"
         style="fill:#0c2950;fill-opacity:1;fill-rule:nonzero;stroke:none"
         id="path22" />
      <path
         inkscape:connector-curvature="0"
         d="M 11202.9,8506.1 V 7862.07 H 11025 v 644.03 h -55.1 V 7493.62 h 55.1 v 316.47 h 177.9 v -316.47 h 54.9 V 8506.1 h -54.9"
         style="fill:#0c2950;fill-opacity:1;fill-rule:nonzero;stroke:none"
         id="path24" />
      <path
         inkscape:connector-curvature="0"
         d="m 11954.3,8506.1 h -230 v -54.48 h 87.6 v -958 h 54.8 v 958 h 87.6 v 54.48"
         style="fill:#0c2950;fill-opacity:1;fill-rule:nonzero;stroke:none"
         id="path26" />
      <path
         inkscape:connector-curvature="0"
         d="m 4288.71,7493.87 v 1011.87 h 196.82 v -53.98 h -141.95 v -589.03 h 104.2 v -52.01 h -104.2 v -262.7 h 175.02 v -54.15 h -229.89"
         style="fill:#0c2950;fill-opacity:1;fill-rule:nonzero;stroke:none"
         id="path28" />
      <path
         inkscape:connector-curvature="0"
         d="M 4109.48,8506 V 7862.07 H 3931.75 V 8506 h -55.04 V 7493.45 h 55.04 v 316.36 h 177.73 v -316.36 h 54.93 V 8506 h -54.93"
         style="fill:#0c2950;fill-opacity:1;fill-rule:nonzero;stroke:none"
         id="path30" />
      <path
         inkscape:connector-curvature="0"
         d="m 3802.29,8505.74 h -229.94 v -54.25 h 87.6 v -957.62 h 54.92 v 957.62 h 87.42 v 54.25"
         style="fill:#0c2950;fill-opacity:1;fill-rule:nonzero;stroke:none"
         id="path32" />
      <path
         inkscape:connector-curvature="0"
         d="m 7620.26,6985.91 v 2025.03 h 109.93 v -1916.6 h 350.71 v -108.43 h -460.64"
         style="fill:#0c2950;fill-opacity:1;fill-rule:nonzero;stroke:none"
         id="path34" />
      <path
         inkscape:connector-curvature="0"
         d="m 8267.96,6985.91 v 2025.03 h 109.78 v -1916.6 h 350.74 v -108.43 h -460.52"
         style="fill:#0c2950;fill-opacity:1;fill-rule:nonzero;stroke:none"
         id="path36" />
      <path
         inkscape:connector-curvature="0"
         d="m 8914.48,6985.91 v 2025.03 h 427.14 V 8902.58 H 9024.28 V 7724.29 h 208.61 v -104.03 h -208.61 v -525.92 h 350.67 v -108.43 h -460.47"
         style="fill:#0c2950;fill-opacity:1;fill-rule:nonzero;stroke:none"
         id="path38" />
      <path
         inkscape:connector-curvature="0"
         d="m 10466.8,7673.63 v -687.72 h -109.9 v 687.72 l -234.6,1337.31 h 115.9 c 0,0 162.2,-989.62 173.7,-1056.03 11.4,66.41 170.9,1056.03 170.9,1056.03 h 115.6 l -231.6,-1337.31"
         style="fill:#0c2950;fill-opacity:1;fill-rule:nonzero;stroke:none"
         id="path40" />
      <path
         inkscape:connector-curvature="0"
         d="m 5802.15,7742.15 v -114.58 h 831.32 c -142.91,-346.64 -459.97,-561.59 -829.15,-561.59 -229.67,0 -472,106.51 -632.67,277.89 -160.96,169.37 -253.24,412.23 -253.24,666.35 0,266.56 128.68,540.83 335.9,715.74 157.75,133.2 348.39,200.75 566.59,200.75 315.78,0 550.92,-135.96 762.64,-440.99 l 2.29,-3.05 h 138.86 l -6.15,11.43 c -204.27,357.99 -503.42,539.55 -889.2,539.55 -290.75,0 -527.56,-94.32 -724.2,-288.28 -202.99,-200.05 -310.3,-453.32 -310.3,-732.41 0,-287.3 103.27,-552.2 290.74,-745.95 186.92,-193.08 442.13,-299.46 718.74,-299.46 445.02,0 801.56,248.57 953.9,665.1 20.23,61.21 31.27,102.78 31.4,103.22 l 1.66,6.28 h -989.13"
         style="fill:#0c2950;fill-opacity:1;fill-rule:nonzero;stroke:none"
         id="path42" />
      <path
         inkscape:connector-curvature="0"
         d="m 7061.32,7724.29 98.57,1007.33 98.7,-1007.33 z m 159.13,1286.65 H 7099.38 L 6871.91,6985.91 h 115.56 l 67.59,634.35 h 209.54 l 67.62,-634.35 h 115.8 l -227.57,2025.03"
         style="fill:#0c2950;fill-opacity:1;fill-rule:nonzero;stroke:none"
         id="path44" />
      <path
         inkscape:connector-curvature="0"
         d="m 9671.17,8867.81 v -1105.2 c 94.49,58.73 250.04,207.88 251.63,552.54 -1.59,344.56 -157.14,493.72 -251.63,552.66 z m 361.43,-1881.9 h -109.8 v 44.58 c 0,348.76 -156.57,499.31 -251.63,558.65 V 6985.91 H 9561.4 v 2041.64 c 0,0 49.28,-13.07 70.04,-20.26 20.88,-7.19 395.96,-120.79 401.16,-686.23 v 0 -11.75 c -3.4,-379.74 -175.68,-556.62 -293.46,-633.34 118.93,-77.79 293.46,-257.77 293.46,-645.48 v -44.58"
         style="fill:#0c2950;fill-opacity:1;fill-rule:nonzero;stroke:none"
         id="path46" />
      <path
         inkscape:connector-curvature="0"
         d="m 8005.93,6482.83 755.09,-315.67 v -205.76 205.76 l 755.22,315.67"
         style="fill:none;stroke:#0c2950;stroke-width:33.4629;stroke-linecap:round;stroke-linejoin:round;stroke-miterlimit:10;stroke-dasharray:none;stroke-opacity:1"
         id="path48" />
      <path
         inkscape:connector-curvature="0"
         d="M 7781.84,6482.83 V 5955.3 l -1300.27,550.55 v -227.54"
         style="fill:none;stroke:#0c2950;stroke-width:33.4629;stroke-linecap:round;stroke-linejoin:round;stroke-miterlimit:10;stroke-dasharray:none;stroke-opacity:1"
         id="path50" />
      <path
         inkscape:connector-curvature="0"
         d="m 7275.08,9514.61 h -132.17 v 483.48 l 132.17,54.91"
         style="fill:none;stroke:#0c2950;stroke-width:33.4629;stroke-linecap:round;stroke-linejoin:round;stroke-miterlimit:10;stroke-dasharray:none;stroke-opacity:1"
         id="path52" />
      <path
         inkscape:connector-curvature="0"
         d="m 8858.76,9514.61 h -132.4 v 538.29 l 132.4,-56.21 z"
         style="fill:none;stroke:#0c2950;stroke-width:33.4629;stroke-linecap:round;stroke-linejoin:round;stroke-miterlimit:10;stroke-dasharray:none;stroke-opacity:1"
         id="path54" />
      <path
         inkscape:connector-curvature="0"
         d="m 6481.14,9721.54 -130.04,-54.48 v -152.97 h 130.21"
         style="fill:none;stroke:#0c2950;stroke-width:33.4629;stroke-linecap:round;stroke-linejoin:round;stroke-miterlimit:10;stroke-dasharray:none;stroke-opacity:1"
         id="path56" />
      <path
         inkscape:connector-curvature="0"
         d="m 9516,9722.67 159.74,-66.7"
         style="fill:none;stroke:#0c2950;stroke-width:33.4629;stroke-linecap:round;stroke-linejoin:round;stroke-miterlimit:10;stroke-dasharray:none;stroke-opacity:1"
         id="path58" />
      <path
         inkscape:connector-curvature="0"
         d="m 7670.98,9514.61 h -132.24 v 648.89 l 132.24,55.3"
         style="fill:none;stroke:#0c2950;stroke-width:33.4629;stroke-linecap:round;stroke-linejoin:round;stroke-miterlimit:10;stroke-dasharray:none;stroke-opacity:1"
         id="path60" />
      <path
         inkscape:connector-curvature="0"
         d="m 8067.03,9514.61 v 813.09"
         style="fill:none;stroke:#0c2950;stroke-width:33.4629;stroke-linecap:round;stroke-linejoin:round;stroke-miterlimit:10;stroke-dasharray:none;stroke-opacity:1"
         id="path62" />
      <path
         inkscape:connector-curvature="0"
         d="m 9596.39,9514.61 v 173.93"
         style="fill:none;stroke:#0c2950;stroke-width:33.4629;stroke-linecap:round;stroke-linejoin:round;stroke-miterlimit:10;stroke-dasharray:none;stroke-opacity:1"
         id="path64" />
      <path
         inkscape:connector-curvature="0"
         d="m 7142.91,9790.3 133.72,55.83"
         style="fill:none;stroke:#0c2950;stroke-width:33.4629;stroke-linecap:round;stroke-linejoin:round;stroke-miterlimit:10;stroke-dasharray:none;stroke-opacity:1"
         id="path66" />
      <path
         inkscape:connector-curvature="0"
         d="m 7538.74,9955.7 133.85,55.9"
         style="fill:none;stroke:#0c2950;stroke-width:33.4629;stroke-linecap:round;stroke-linejoin:round;stroke-miterlimit:10;stroke-dasharray:none;stroke-opacity:1"
         id="path68" />
      <path
         inkscape:connector-curvature="0"
         d="m 9122.7,9514.61 v 372.35 l 132.12,-55.22 v -206.22 l -132.22,54.91"
         style="fill:none;stroke:#0c2950;stroke-width:33.4629;stroke-linecap:round;stroke-linejoin:round;stroke-miterlimit:10;stroke-dasharray:none;stroke-opacity:1"
         id="path70" />
      <path
         inkscape:connector-curvature="0"
         d="M 8067.03,10122.6 7934.65,10329 V 9514.61"
         style="fill:none;stroke:#0c2950;stroke-width:33.4629;stroke-linecap:round;stroke-linejoin:round;stroke-miterlimit:10;stroke-dasharray:none;stroke-opacity:1"
         id="path72" />
      <path
         inkscape:connector-curvature="0"
         d="m 6747.02,9626.11 132.39,54.78 v 206.33 l -132.39,-54.63 v -317.98"
         style="fill:none;stroke:#0c2950;stroke-width:33.4629;stroke-linecap:round;stroke-linejoin:round;stroke-miterlimit:10;stroke-dasharray:none;stroke-opacity:1"
         id="path74" />
      <path
         inkscape:connector-curvature="0"
         d="m 6879.16,9515.01 -83.72,130.85"
         style="fill:none;stroke:#0c2950;stroke-width:33.4629;stroke-linecap:round;stroke-linejoin:round;stroke-miterlimit:10;stroke-dasharray:none;stroke-opacity:1"
         id="path76" />
      <path
         inkscape:connector-curvature="0"
         d="m 9255.09,9514.09 -97.08,151.66"
         style="fill:none;stroke:#0c2950;stroke-width:33.4629;stroke-linecap:round;stroke-linejoin:round;stroke-miterlimit:10;stroke-dasharray:none;stroke-opacity:1"
         id="path78" />
      <path
         inkscape:connector-curvature="0"
         d="m 6481.14,9514.57 -52.81,82.53"
         style="fill:none;stroke:#0c2950;stroke-width:33.4629;stroke-linecap:round;stroke-linejoin:round;stroke-miterlimit:10;stroke-dasharray:none;stroke-opacity:1"
         id="path80" />
      <path
         inkscape:connector-curvature="0"
         d="m 8330.45,10010.3 132.43,-55.1 v 207.3 l -132.43,55.2 v -703.09"
         style="fill:none;stroke:#0c2950;stroke-width:33.4629;stroke-linecap:round;stroke-linejoin:round;stroke-miterlimit:10;stroke-dasharray:none;stroke-opacity:1"
         id="path82" />
    </g>
  </g>
</svg>
