<?xml version="1.0"?>
<svg xmlns="http://www.w3.org/2000/svg" xmlns:xlink="http://www.w3.org/1999/xlink" version="1.1" id="Capa_1" x="0px" y="0px" viewBox="0 0 512 512" style="enable-background:new 0 0 512 512;" xml:space="preserve" width="18px" height="18px"><g><g>
	<g>
		<path d="M371.53,0c-51.659,0-94.545,38.257-101.829,87.925H37.546l166.289,240.716V482h-101.05v30h232.1v-30h-101.05V328.642    l92.152-133.398c14.082,6.966,29.58,10.606,45.543,10.606c56.753,0,102.925-46.172,102.925-102.925S428.282,0,371.53,0z     M218.835,297.573l-58.193-84.24h116.386L218.835,297.573z M297.752,183.333H139.916l-45.184-65.408h248.203L297.752,183.333z     M371.53,175.851c-9.808,0-19.362-1.944-28.228-5.671l56.822-82.254h-99.96C307.099,54.887,336.46,30,371.53,30    c40.211,0,72.925,32.714,72.925,72.925S411.74,175.851,371.53,175.851z" data-original="#000000" class="active-path" data-old_color="#000000" fill="#002B5C"/>
	</g>
</g></g> </svg>
