<?xml version="1.0"?>
<svg xmlns="http://www.w3.org/2000/svg" xmlns:xlink="http://www.w3.org/1999/xlink" version="1.1" id="Capa_1" x="0px" y="0px" viewBox="0 0 464 464" style="enable-background:new 0 0 464 464;" xml:space="preserve" width="18px" height="18px"><g><g>
	<g>
		<path d="M380.14,70.688c0.128-0.272,0.344-0.488,0.456-0.8c3.466-8.128-0.313-17.528-8.441-20.994    c-8.128-3.466-17.528,0.313-20.994,8.441c-0.104,0.243-0.201,0.489-0.293,0.737c-0.16,0.392-0.216,0.8-0.344,1.192    c-70.296-18.58-143.347,18.529-169.8,86.256c-1.635,4.104,0.366,8.758,4.47,10.393c0.006,0.002,0.012,0.005,0.018,0.007    L304.14,203.2l-50.4,126.832c-19.443-5.962-39.663-9.006-60-9.032c-86.664,0-164.064,54.536-188.2,132.64    c-1.303,4.222,1.062,8.701,5.284,10.004C11.587,463.88,12.382,464,13.18,464H374.3c4.418,0.005,8.004-3.573,8.008-7.992    c0.001-0.817-0.123-1.629-0.368-2.409c-17.816-54.528-59.394-98.038-113.056-118.312l50.144-126.2L437.98,256.36    c4.104,1.635,8.758-0.366,10.393-4.47c0.002-0.006,0.005-0.012,0.007-0.018C476.247,182.922,446.569,104.124,380.14,70.688z     M363.06,448H24.42c25.488-65.872,93.512-111,169.32-111c18.323,0.004,36.55,2.661,54.112,7.888l-17.552,44.16l14.88,5.904    l17.808-44.8C308.531,367.386,344.808,402.856,363.06,448z M198.916,144.144c0.4-0.864,0.8-1.76,1.184-2.608    c0.68-1.376,1.4-2.728,2.128-4.08c1.2-2.224,2.461-4.4,3.784-6.528c0.8-1.272,1.6-2.536,2.4-3.768    c1.448-2.16,2.976-4.248,4.536-6.304c0.8-1.056,1.6-2.144,2.4-3.2c1.928-2.4,3.952-4.656,6.032-6.872    c0.552-0.592,1.064-1.224,1.6-1.8c2.715-2.795,5.541-5.448,8.48-7.96c0.448-0.392,0.936-0.736,1.392-1.112    c2.488-2.064,5.032-4.048,7.656-5.912c0.92-0.656,1.88-1.256,2.824-1.88c2.24-1.504,4.512-2.968,6.84-4.32    c1.072-0.616,2.152-1.2,3.24-1.792c2.32-1.259,4.677-2.445,7.072-3.56c1.072-0.504,2.152-1,3.24-1.464    c2.576-1.112,5.192-2.12,7.832-3.056c0.936-0.336,1.856-0.688,2.8-1c3.2-1.067,6.443-1.989,9.728-2.768    c0.4-0.096,0.8-0.224,1.2-0.312c7.763-1.804,15.677-2.875,23.64-3.2c0.4,0,0.8,0,1.2,0c3.488-0.101,6.995-0.061,10.52,0.12    c0.84,0,1.68,0.12,2.52,0.184c3.104,0.224,6.211,0.56,9.32,1.008c1.024,0.152,2.04,0.312,3.064,0.488    c1.192,0.208,2.4,0.512,3.576,0.752c-42.605,15.346-77.166,47.312-95.784,88.592L198.916,144.144z M310.068,188.312l-51.84-20.6    c17.854-39.016,51.436-68.616,92.384-81.432L310.068,188.312z M376.788,214.824l-51.848-20.608l40.544-102.032    C386.472,129.612,390.58,174.19,376.788,214.824z M442.628,199c0,2.912-0.104,5.832-0.328,8.8    c-0.104,1.368-0.288,2.736-0.44,4.112c-0.272,2.512-0.584,5.032-1.016,7.544c-0.248,1.496-0.56,2.984-0.864,4.472    c-0.496,2.421-1.067,4.84-1.712,7.256c-0.4,1.496-0.8,3-1.272,4.488c-0.272,0.904-0.616,1.792-0.912,2.688l-44.424-17.656    c14.784-42.807,11.572-89.781-8.904-130.176c0.88,0.544,1.784,1.056,2.648,1.6c1.288,0.848,2.552,1.704,3.8,2.592    c2.032,1.44,4,2.952,5.936,4.496c1.12,0.904,2.256,1.784,3.336,2.72c2.048,1.752,4,3.592,5.912,5.464    c0.8,0.8,1.72,1.6,2.536,2.448c5.329,5.485,10.149,11.443,14.4,17.8c0.632,0.944,1.184,1.936,1.792,2.888    c1.416,2.248,2.792,4.512,4.064,6.84c0.664,1.216,1.272,2.464,1.888,3.704c1.088,2.152,2.128,4.32,3.088,6.528    c0.584,1.336,1.128,2.68,1.664,4c0.864,2.208,1.664,4.44,2.4,6.696c0.448,1.368,0.904,2.728,1.304,4.112    c0.696,2.4,1.296,4.8,1.848,7.2c0.296,1.288,0.632,2.56,0.888,3.856c0.584,2.92,1.016,5.88,1.392,8.848    c0.104,0.8,0.264,1.6,0.352,2.4c0.4,3.803,0.629,7.629,0.688,11.48C442.692,197.128,442.628,198.064,442.628,199z" data-original="#000000" class="active-path" data-old_color="#000000" fill="#002B5C"/>
	</g>
</g><g>
	<g>
		<path d="M101.74,32c-26.51,0-48,21.49-48,48c0.026,26.499,21.501,47.974,48,48c26.51,0,48-21.49,48-48S128.25,32,101.74,32z     M101.74,112c-17.673,0-32-14.327-32-32s14.327-32,32-32s32,14.327,32,32S119.413,112,101.74,112z" data-original="#000000" class="active-path" data-old_color="#000000" fill="#002B5C"/>
	</g>
</g><g>
	<g>
		<rect x="93.74" width="16" height="24" data-original="#000000" class="active-path" data-old_color="#000000" fill="#002B5C"/>
	</g>
</g><g>
	<g>
		<rect x="45.623" y="19.911" transform="matrix(0.7071 -0.7071 0.7071 0.7071 -6.8588 47.2636)" width="16" height="24" data-original="#000000" class="active-path" data-old_color="#000000" fill="#002B5C"/>
	</g>
</g><g>
	<g>
		<rect x="21.74" y="72" width="24" height="16" data-original="#000000" class="active-path" data-old_color="#000000" fill="#002B5C"/>
	</g>
</g><g>
	<g>
		<rect x="41.648" y="120.08" transform="matrix(0.7071 -0.7071 0.7071 0.7071 -74.8534 75.4489)" width="24" height="16" data-original="#000000" class="active-path" data-old_color="#000000" fill="#002B5C"/>
	</g>
</g><g>
	<g>
		<rect x="93.74" y="136" width="16" height="24" data-original="#000000" class="active-path" data-old_color="#000000" fill="#002B5C"/>
	</g>
</g><g>
	<g>
		<rect x="141.823" y="116.093" transform="matrix(0.7071 -0.7071 0.7071 0.7071 -46.6931 143.4585)" width="16" height="24" data-original="#000000" class="active-path" data-old_color="#000000" fill="#002B5C"/>
	</g>
</g><g>
	<g>
		<rect x="157.74" y="72" width="24" height="16" data-original="#000000" class="active-path" data-old_color="#000000" fill="#002B5C"/>
	</g>
</g><g>
	<g>
		<rect x="137.83" y="23.912" transform="matrix(0.7071 -0.7071 0.7071 0.7071 21.3189 115.2925)" width="24" height="16" data-original="#000000" class="active-path" data-old_color="#000000" fill="#002B5C"/>
	</g>
</g></g> </svg>
