<?xml version="1.0"?>
<svg xmlns="http://www.w3.org/2000/svg" id="Layer_1" enable-background="new 0 0 511.842 511.842" height="30px" viewBox="0 0 511.842 511.842" width="30px"><g><path d="m511.842 233.952c0-28.1-22.861-50.961-50.961-50.961-7.47 0-14.562 1.629-20.96 4.529v-95.62h-368v95.621c-6.398-2.9-13.491-4.529-20.961-4.529-28.1 0-50.96 22.861-50.96 50.961v156.649h35.96v29.341h30v-29.341h379.922v29.341h30v-29.341h35.96zm-101.921 13.419c-8.213-4.508-17.633-7.077-27.645-7.077h-252.711c-10.011 0-19.432 2.569-27.645 7.077v-125.472h308v125.472zm-.129 47.927h-307.742c1.334-14.009 13.163-25.004 27.515-25.004h252.711c14.353 0 26.182 10.995 27.516 25.004zm-337.871 30h368v-91.346c0-11.558 9.403-20.961 20.961-20.961s20.96 9.403 20.96 20.961v126.649h-451.842v-126.649c0-11.558 9.403-20.961 20.961-20.961s20.96 9.403 20.96 20.961z" data-original="#000000" class="active-path" data-old_color="#000000" fill="#485F80"/></g> </svg>
