<?xml version="1.0"?>
<svg xmlns="http://www.w3.org/2000/svg" xmlns:xlink="http://www.w3.org/1999/xlink" version="1.1" id="Layer_1" x="0px" y="0px" viewBox="0 0 498.59 498.59" style="enable-background:new 0 0 498.59 498.59;" xml:space="preserve" width="18px" height="18"><g><g>
	<path d="M492.499,296.653l-53.906-47.358l53.906-47.358c6.799-5.973,6.794-16.569,0-22.538l-66.733-58.627   c-9.685-8.508-24.9-1.593-24.9,11.269v84.11l-41.834-36.752c-6.224-5.467-15.701-4.854-21.169,1.369   c-5.468,6.224-4.854,15.701,1.369,21.169l53.907,47.358l-53.907,47.358c-6.224,5.468-6.837,14.945-1.369,21.169   c5.467,6.224,14.945,6.835,21.169,1.369l41.834-36.752v84.11c0,12.929,15.284,19.717,24.9,11.269l66.733-58.627   C499.297,313.218,499.293,302.623,492.499,296.653z M430.865,165.185l29.006,25.483l-29.006,25.483V165.185z M430.865,333.405   v-50.966l29.006,25.483L430.865,333.405z" data-original="#000000" class="active-path" data-old_color="#000000" fill="#002B5C"/>
	<path d="M306.126,0H15.994c-8.284,0-15,6.716-15,15v412.977c0,8.284,6.716,15,15,15H27.11v40.613c0,8.284,6.716,15,15,15h237.9   c8.284,0,15-6.716,15-15v-40.613h11.116c8.284,0,15-6.716,15-15V15C321.126,6.716,314.41,0,306.126,0z M265.01,468.59H57.11   v-25.613h207.9V468.59z M291.126,412.977c-5.879,0-228.692,0-260.132,0V30h260.132V412.977z" data-original="#000000" class="active-path" data-old_color="#000000" fill="#002B5C"/>
	<path d="M161.06,393.715c50.246,0,91.125-40.878,91.125-91.124s-40.878-91.125-91.125-91.125s-91.124,40.878-91.124,91.125   S110.814,393.715,161.06,393.715z M161.06,241.466c33.704,0,61.125,27.42,61.125,61.125s-27.42,61.124-61.125,61.124   s-61.124-27.42-61.124-61.124S127.356,241.466,161.06,241.466z" data-original="#000000" class="active-path" data-old_color="#000000" fill="#002B5C"/>
	<path d="M161.06,191.174c39.22,0,71.128-31.908,71.128-71.128S200.28,48.918,161.06,48.918c-39.22,0-71.127,31.908-71.127,71.128   S121.84,191.174,161.06,191.174z M161.06,78.918c22.678,0,41.128,18.45,41.128,41.128s-18.45,41.128-41.128,41.128   c-22.678,0-41.127-18.45-41.127-41.128S138.382,78.918,161.06,78.918z" data-original="#000000" class="active-path" data-old_color="#000000" fill="#002B5C"/>
</g></g> </svg>
